<?xml version="1.0" encoding="UTF-8"?>
<!DOCTYPE svg PUBLIC "-//W3C//DTD SVG 1.1//EN" "http://www.w3.org/Graphics/SVG/1.1/DTD/svg11.dtd">
<!-- Creator: CorelDRAW (Versión de evaluación) -->
<svg xmlns="http://www.w3.org/2000/svg" xml:space="preserve" width="26.6708mm" height="20.3166mm" version="1.1" style="shape-rendering:geometricPrecision; text-rendering:geometricPrecision; image-rendering:optimizeQuality; fill-rule:evenodd; clip-rule:evenodd"
viewBox="0 0 244443.84 186206.18"
 xmlns:xlink="http://www.w3.org/1999/xlink"
 xmlns:xodm="http://www.corel.com/coreldraw/odm/2003">
 <defs>
  <style type="text/css">
   <![CDATA[
    .fil0 {fill:white}
   ]]>
  </style>
 </defs>
 <g id="Capa_x0020_1">
  <metadata id="CorelCorpID_0Corel-Layer"/>
  <g id="_105553136462976">
   <path class="fil0" d="M-0 92579.75c0,3814.57 1785.39,4411.22 4415.8,7042.56l37717.64 37716.73c26611.23,26611.23 23089.03,27755.96 34135.87,16710.04 14620.36,-14620.36 15444.32,-9144.14 -12413.38,-37000.92 -3529.53,-3529.53 -22283.41,-21797.65 -23751.68,-23990.89 1545.26,-2308.72 30869.39,-31108.6 35449.25,-35687.55 14811.92,-14812.83 13978.8,-12041.27 1193.31,-24826.76 -11754.4,-11754.4 -8615.31,-9765.55 -34375.09,15994.23l-37716.73 37716.73c-1535.17,1535.17 -4655.02,3710.08 -4655.02,6325.84z"/>
   <path class="fil0" d="M158029.53 43882.17c0,3193.16 2897.13,5526.63 4654.1,7280.85 5717.27,5708.1 40081.35,39542.44 41655.94,41894.24 -1574.59,2351.8 -35938.67,36186.13 -41655.94,41894.24 -8035.15,8022.32 -5285.58,8321.11 5252.59,18858.36 10705.9,10706.81 8883.85,9019.5 23393.32,-5489.97l48459.29 -48459.29c2685.41,-2685.41 4253.58,-4391.06 4655.02,-5973.89l0 -1614.91c-382.19,-1524.18 -1839.46,-3203.25 -4415.8,-5779.59l-37717.64 -37716.73c-26611.23,-26611.23 -23089.03,-27755.96 -34135.87,-16710.04 -2055.76,2055.76 -10144.99,9034.16 -10144.99,11816.72z"/>
   <path class="fil0" d="M85937.72 177084.95c0,4086.77 2691.83,5395.57 6096.71,6316.67 12392.3,3350.81 12977.96,5709.93 16521.23,-5182.93 1293.21,-3974.96 2188.66,-7344.09 3364.55,-11435.45l9928.69 -33517.22c7144.29,-25654.38 16242.61,-53216.04 23289.75,-78880.49 975.18,-3552.44 2187.74,-7619.05 3282.07,-11040.43 1229.06,-3842.06 2196.9,-7751.03 3342.56,-11457.45 1165.82,-3771.49 2365.54,-7652.96 3403.05,-11397.87 2720.24,-9822.37 6873.92,-15005.3 -2754.15,-17779.62 -16639.46,-4794.33 -12852.39,-7088.38 -23199.93,27632.23l-10025.84 33897.58c-1175.9,3944.71 -2115.33,7273.52 -3227.08,11096.34 -1097.99,3774.24 -2289.47,7454.99 -3390.22,11409.79 -4093.19,14697.35 -9215.63,30237.9 -13263.91,44982.92l-13367.48 45355.94z"/>
  </g>
 </g>
</svg>
